<svg width="26" height="33" viewBox="0 0 26 33" fill="none" xmlns="http://www.w3.org/2000/svg">
<path d="M12.9186 0.541504H7.28747V2.57877H12.9186C18.9461 2.57877 23.8498 7.60527 23.8498 13.7837C23.8498 19.962 18.9461 24.9885 12.9186 24.9885C10.9197 24.9885 8.98424 24.4355 7.28747 23.3872V22.5899C8.9448 23.7089 10.8842 24.3095 12.9186 24.3095C18.5809 24.3095 23.1873 19.5877 23.1873 13.7837C23.1873 7.97965 18.5809 3.25785 12.9186 3.25785H4.63748V5.29511H12.9186C17.4849 5.29511 21.1998 9.10313 21.1998 13.7837C21.1998 18.4642 17.4848 22.2722 12.9186 22.2722C10.8076 22.2722 8.82326 21.4711 7.28747 20.0081V19.0384C8.6819 20.6071 10.69 21.5931 12.9186 21.5931C17.1196 21.5931 20.5373 18.0898 20.5373 13.7837C20.5373 9.47752 17.1196 5.9742 12.9186 5.9742H0V32.4585H1.98749V8.01146H12.9186C16.0237 8.01146 18.5498 10.6009 18.5498 13.7837C18.5498 16.9664 16.0237 19.5558 12.9186 19.5558C9.81364 19.5558 7.28747 16.9664 7.28747 13.7837V13.4442H5.29998V27.0259H7.28747V25.704C9.03303 26.5724 10.9501 27.0259 12.9186 27.0259C20.042 27.0259 25.8373 21.0855 25.8373 13.7838C25.8373 6.482 20.042 0.541504 12.9186 0.541504Z" fill="white"/>
<path d="M4.63802 10.7279H2.65002V29.7423H4.63802V10.7279Z" fill="white"/>
</svg>
